<svg width="253" height="343" viewBox="0 0 253 343" fill="none" xmlns="http://www.w3.org/2000/svg">
<path d="M227.5 220C227.1 224.8 223.333 232.667 221.5 236C220.781 237.363 221.534 224.901 222 218.5C222 213.833 222.2 202.9 223 196.5C223.8 190.1 223.333 183.167 223 180.5C221.8 174.1 218.167 169.833 216.5 168.5C210.5 162.9 209 159.833 209 159C209.4 148.6 208.5 139 208 135.5C207.167 130.667 204.5 118.6 200.5 109C195.5 97 195.5 97 190 90C184.5 83 174 82 171 82C168.6 82 153 85.3333 145.5 87C141.167 87.8333 131 89.6 125 90C119 90.4 105.833 88.8333 100 88L71 85.5C61 85.5 57.5 86.8333 57 87.5C56 87.5 53.1 89.1 49.5 95.5C45.9 101.9 44 111.833 43.5 116L40.5 142C40.5 146.5 37.5 154 37 154.5C36.5 155 31.5 163.5 29 165C27 166.2 26.5 184.167 26.5 193L24 231C23.8333 232.833 23.1 236.4 21.5 236C19.9 235.6 18.8333 232.833 18.5 231.5V193.5C16.9 190.7 16.1667 188 16 187C15.5 179 15.5 181 15 178.5C14.5 176 13.5 178 10.5 171C8.1 165.4 7.5 159.333 7.5 157C7.5 143.5 5 139 4.5 136.5C4.1 134.5 6 129.333 7 127C7.16667 126.667 7.5 125.8 7.5 125C7.5 124 8 128 4 110.5C0.8 96.5 0 89.3333 0 87.5C0.5 83.3333 2 73.1 4 65.5C6.5 56 15 38 24.5 27.5C34 17 49 10 59 6.5C69 3 89.5 4.5 94 4.5C97.6 4.5 103.167 1.5 105.5 0L134 0.5C159 9.5 173 18.5 187 31.5C201 44.5 209.5 61 211 64.5C212.2 67.3 212.167 71.6667 212 73.5C222.5 74.5 228.5 77.5 232.5 79C236.5 80.5 237.5 82.5 238 83C238.5 83.5 237.5 86.5 237.5 88C237.5 89.2 237.833 89.8333 238 90C240.833 93.1667 246.6 99.6 247 100C247.5 100.5 248 101.5 248 102C248 102.4 247.667 104.167 247.5 105C247.333 105.5 247 106.8 247 108V110C247 111 251.5 117 252 120C252.5 123 251.5 127 251.5 128.5C251.5 130 252.5 132.5 252.5 134C252.5 135.2 251.5 137.167 251 138C247.8 142.8 247.667 147 248 148.5C249.6 151.7 250.333 155.167 250.5 156.5C250.5 157.667 250 160.1 248 160.5C245.5 161 245 162 245 163C245 164 246 166 246 167C246 167.8 245.333 168.333 245 168.5C243.333 168.833 239.9 169.8 239.5 171C239 172.5 240 183.5 240 184.5C240 185.3 239.333 186.167 239 186.5C234.6 191.3 231.167 199.167 230 202.5C229.333 206.333 227.9 215.2 227.5 220Z" fill="black"/>
<path d="M175.062 165C183.062 165.4 193.729 173.833 198.062 178C178.062 171 178.562 172.5 177.562 172.5C176.763 172.5 161.896 180.833 154.562 185C151.062 186.333 142.863 188.4 138.062 186C132.062 183 133.062 179 133.062 178.5C133.062 178 150.562 173 160.562 169C168.562 165.8 173.562 165 175.062 165Z" fill="black"/>
<path d="M109.5 177.221C112.3 180.421 112.333 182.554 112 183.221C112.36 185.621 109.15 185.888 107.5 185.721C104 184.554 95.4 181.321 89 177.721C82.6 174.121 76.3333 172.888 74 172.721C64 173.721 63 175.721 56 177.721C50.4 179.321 49 179.054 49 178.721C49.4 176.721 62.1667 168.888 68.5 165.221C68.6667 165.054 71.1 164.821 79.5 165.221C87.9 165.621 96 168.388 99 169.721C101.333 170.888 106.7 174.021 109.5 177.221Z" fill="black"/>
<path d="M171.571 285C171.971 269.4 146.404 255.167 133.571 250C131.571 252 128.071 254.5 119.071 255C111.871 255.4 105.738 251.833 103.571 250C83.0713 258 75.0711 266 69.5711 273C64.0711 280 65.0711 283.5 65.0711 284.5C65.0711 285.3 68.7378 286.833 70.5711 287.5C73.7711 288.3 77.5711 287.167 79.0711 286.5C98.0711 279.5 96.5711 281 122.571 280.5C143.371 280.1 155.238 285 158.571 287.5C165.771 288.3 170.238 286.167 171.571 285Z" fill="black"/>
<path d="M101.5 342C95.4999 341.2 89.3332 332 86.9999 327.5C86.5999 326.3 87.1665 326.333 87.4999 326.5C91.0999 331.7 95.3332 335.667 96.9999 337C99.7999 339.4 104 339.5 105.5 339.5C106.5 339.5 111.333 339.667 112.5 339.5C119.5 338 122 338 122.5 338C123 338 126.5 338.5 131 339C134.6 339.4 138.167 339.167 139.5 339C141.1 339 145.167 336.667 147 335.5L158 328C159.667 326.667 163.2 324 164 324C164.8 324 164.333 324.333 164 324.5C163.2 324.9 155 332.333 151 336C147.8 339.6 142.333 341.833 140 342.5C137.333 342.833 131.2 343.3 128 342.5C124 341.5 121.5 341.5 120 341.5C118.5 341.5 114 342.5 111 342.5C108.6 342.5 103.667 342.167 101.5 342Z" fill="black"/>
</svg>
